<?xml version="1.0" encoding="UTF-8" standalone="no"?>
<!-- Generated by graphviz version 2.40.1 (20161225.0304)
 -->

<!-- Title: G Pages: 1 -->

<svg
   xmlns:dc="http://purl.org/dc/elements/1.1/"
   xmlns:cc="http://creativecommons.org/ns#"
   xmlns:rdf="http://www.w3.org/1999/02/22-rdf-syntax-ns#"
   xmlns:svg="http://www.w3.org/2000/svg"
   xmlns="http://www.w3.org/2000/svg"
   xmlns:sodipodi="http://sodipodi.sourceforge.net/DTD/sodipodi-0.dtd"
   xmlns:inkscape="http://www.inkscape.org/namespaces/inkscape"
   width="288pt"
   height="236pt"
   viewBox="0.00 0.00 288.00 235.86"
   id="svg2"
   version="1.1"
   inkscape:version="0.91 r13725"
   sodipodi:docname="zolware_products.svg">
  <metadata
     id="metadata132">
    <rdf:RDF>
      <cc:Work
         rdf:about="">
        <dc:format>image/svg+xml</dc:format>
        <dc:type
           rdf:resource="http://purl.org/dc/dcmitype/StillImage" />
        <dc:title></dc:title>
      </cc:Work>
    </rdf:RDF>
  </metadata>
  <defs
     id="defs130">
    <marker
       inkscape:isstock="true"
       style="overflow:visible;"
       id="marker5261"
       refX="0.0"
       refY="0.0"
       orient="auto"
       inkscape:stockid="Arrow2Lend">
      <path
         transform="scale(1.1) rotate(180) translate(1,0)"
         d="M 8.7185878,4.0337352 L -2.2072895,0.016013256 L 8.7185884,-4.0017078 C 6.9730900,-1.6296469 6.9831476,1.6157441 8.7185878,4.0337352 z "
         style="fill-rule:evenodd;stroke-width:0.625;stroke-linejoin:round;stroke:#000000;stroke-opacity:1;fill:#000000;fill-opacity:1"
         id="path5263" />
    </marker>
    <marker
       inkscape:stockid="Arrow2Lend"
       orient="auto"
       refY="0.0"
       refX="0.0"
       id="marker5123"
       style="overflow:visible;"
       inkscape:isstock="true"
       inkscape:collect="always">
      <path
         id="path5125"
         style="fill-rule:evenodd;stroke-width:0.625;stroke-linejoin:round;stroke:#000000;stroke-opacity:1;fill:#000000;fill-opacity:1"
         d="M 8.7185878,4.0337352 L -2.2072895,0.016013256 L 8.7185884,-4.0017078 C 6.9730900,-1.6296469 6.9831476,1.6157441 8.7185878,4.0337352 z "
         transform="scale(1.1) rotate(180) translate(1,0)" />
    </marker>
    <marker
       inkscape:isstock="true"
       style="overflow:visible;"
       id="marker4949"
       refX="0.0"
       refY="0.0"
       orient="auto"
       inkscape:stockid="Arrow2Lend"
       inkscape:collect="always">
      <path
         transform="scale(1.1) rotate(180) translate(1,0)"
         d="M 8.7185878,4.0337352 L -2.2072895,0.016013256 L 8.7185884,-4.0017078 C 6.9730900,-1.6296469 6.9831476,1.6157441 8.7185878,4.0337352 z "
         style="fill-rule:evenodd;stroke-width:0.625;stroke-linejoin:round;stroke:#000000;stroke-opacity:1;fill:#000000;fill-opacity:1"
         id="path4951" />
    </marker>
    <marker
       inkscape:stockid="Arrow2Lend"
       orient="auto"
       refY="0.0"
       refX="0.0"
       id="Arrow2Lend"
       style="overflow:visible;"
       inkscape:isstock="true"
       inkscape:collect="always">
      <path
         id="path4412"
         style="fill-rule:evenodd;stroke-width:0.625;stroke-linejoin:round;stroke:#000000;stroke-opacity:1;fill:#000000;fill-opacity:1"
         d="M 8.7185878,4.0337352 L -2.2072895,0.016013256 L 8.7185884,-4.0017078 C 6.9730900,-1.6296469 6.9831476,1.6157441 8.7185878,4.0337352 z "
         transform="scale(1.1) rotate(180) translate(1,0)" />
    </marker>
    <marker
       inkscape:stockid="Arrow1Lend"
       orient="auto"
       refY="0.0"
       refX="0.0"
       id="Arrow1Lend"
       style="overflow:visible;"
       inkscape:isstock="true">
      <path
         id="path4394"
         d="M 0.0,0.0 L 5.0,-5.0 L -12.5,0.0 L 5.0,5.0 L 0.0,0.0 z "
         style="fill-rule:evenodd;stroke:#000000;stroke-width:1pt;stroke-opacity:1;fill:#000000;fill-opacity:1"
         transform="scale(0.8) rotate(180) translate(12.5,0)" />
    </marker>
    <marker
       inkscape:stockid="Arrow1Mend"
       orient="auto"
       refY="0.0"
       refX="0.0"
       id="Arrow1Mend"
       style="overflow:visible;"
       inkscape:isstock="true">
      <path
         id="path4400"
         d="M 0.0,0.0 L 5.0,-5.0 L -12.5,0.0 L 5.0,5.0 L 0.0,0.0 z "
         style="fill-rule:evenodd;stroke:#000000;stroke-width:1pt;stroke-opacity:1;fill:#000000;fill-opacity:1"
         transform="scale(0.4) rotate(180) translate(10,0)" />
    </marker>
  </defs>
  <sodipodi:namedview
     pagecolor="#ffffff"
     bordercolor="#666666"
     borderopacity="1"
     objecttolerance="10"
     gridtolerance="10"
     guidetolerance="10"
     inkscape:pageopacity="0"
     inkscape:pageshadow="2"
     inkscape:window-width="1163"
     inkscape:window-height="658"
     id="namedview128"
     showgrid="false"
     inkscape:zoom="1.6"
     inkscape:cx="180"
     inkscape:cy="147.5"
     inkscape:window-x="0"
     inkscape:window-y="0"
     inkscape:window-maximized="0"
     inkscape:current-layer="svg2" />
  <polygon
     style="fill:#ffffff"
     id="polygon7"
     points="471,-385 471,4 -4,4 -4,4 -4,-385 "
     stroke="transparent"
     transform="matrix(0.6063,0,0,0.6063,2.4252,233.4255)" />
  <polygon
     points="0.4168,-93.6787 0.4168,-93.6787 0.4168,-205.6787 239.4168,-205.6787 239.4168,-93.6787 "
     id="polygon12"
     style="fill:none;stroke:#000000"
     transform="matrix(0.6063,0,0,0.6063,2.4252,233.4255)" />
  <text
     x="31.930799"
     y="117.93826"
     font-size="14.00"
     id="text14"
     style="font-size:8.48820019px;font-family:Times, serif;text-anchor:middle;fill:#000000">Zolware Inc.</text>
  <g
     class="cluster"
     id="clust2"
     transform="matrix(0.6063,0,0,0.6063,2.4252,233.4255)">
    <title
       id="title17">cluster_Zolware</title>
    <polygon
       style="fill:none;stroke:#000000"
       id="polygon19"
       points="163.9813,-175.4928 163.9813,-101.4928 7.9813,-101.4928 7.9813,-101.4928 7.9813,-175.4928 " />
    <text
       style="font-size:14px;font-family:Times, serif;text-anchor:middle;fill:#000000"
       id="text21"
       font-size="14.00"
       y="-160.2928"
       x="53.103802">Zolware.com</text>
  </g>
  <g
     class="cluster"
     id="clust3"
     transform="matrix(0.6063,0,0,0.6063,2.4252,233.4255)">
    <title
       id="title24">cluster_PyPI</title>
    <polygon
       style="fill:none;stroke:#000000"
       id="polygon26"
       points="373.1874,-73.661 373.1874,0.339 303.1874,0.339 303.1874,0.339 303.1874,-73.661 " />
    <text
       style="font-size:14px;font-family:Times, serif;text-anchor:middle;fill:#000000"
       id="text28"
       font-size="14.00"
       y="-58.460999"
       x="324.8046">PyPI</text>
  </g>
  <g
     class="node"
     id="node1"
     transform="matrix(0.6063,0,0,0.6063,2.4252,233.4255)">
    <title
       id="title52">API</title>
    <ellipse
       style="fill:none;stroke:#000000"
       id="ellipse54"
       ry="18"
       rx="27"
       cy="-148.86459"
       cx="204.8524" />
    <text
       style="font-size:14px;font-family:Times, serif;text-anchor:middle;fill:#000000"
       id="text56"
       font-size="14.00"
       y="-144.6646"
       x="204.8524">API</text>
  </g>
  <g
     class="node"
     id="node3"
     transform="matrix(0.6063,0,0,0.6063,2.4252,233.4255)">
    <title
       id="title59">API_PyPI</title>
    <ellipse
       style="fill:none;stroke:#000000"
       id="ellipse61"
       ry="18"
       rx="27"
       cy="-25.562"
       cx="338.4046" />
    <text
       style="font-size:14px;font-family:Times, serif;text-anchor:middle;fill:#000000"
       id="text63"
       font-size="14.00"
       y="-21.362"
       x="338.4046">API</text>
  </g>
  <path
     d="m 136.23385,152.03821 c 14.18378,13.0953 40.81678,37.68428 57.23145,52.83923"
     id="path68"
     inkscape:connector-curvature="0"
     style="fill:none;stroke:#000000;stroke-width:0.6063;marker-end:url(#marker5261)" />
  <g
     class="node"
     id="node2"
     transform="matrix(0.6063,0,0,0.6063,2.4252,233.4255)">
    <title
       id="title73">Web_Zolware</title>
    <ellipse
       style="fill:none;stroke:#000000"
       id="ellipse75"
       ry="18"
       rx="69.651398"
       cy="-127.5103"
       cx="85.942802" />
    <text
       style="font-size:14px;font-family:Times, serif;text-anchor:middle;fill:#000000"
       id="text77"
       font-size="14.00"
       y="-123.3103"
       x="85.942802">Web Application</text>
  </g>
  <path
     d="m 66.186836,144.72689 c 0.01571,-22.32307 0.05062,-71.859695 0.07312,-103.826773"
     id="path82"
     inkscape:connector-curvature="0"
     style="fill:none;stroke:#000000;stroke-width:0.6064;stroke-miterlimit:4;stroke-dasharray:none" />
  <polygon
     points="283.7043,-297.5032 279.0704,-302.7499 279.0704,-302.7499 288.8826,-306.7464 "
     id="polygon84"
     style="fill:#000000;stroke:#000000"
     transform="matrix(0.41237854,-0.33208236,0.46644307,0.29359132,90.21397,222.3074)" />
  <path
     d="m 220.4472,207.45312 c 2.9323,-11.5465 9.57748,-37.71367 13.84908,-54.5341"
     id="path89"
     inkscape:connector-curvature="0"
     style="fill:none;stroke:#000000;stroke-width:0.60640001;stroke-miterlimit:4;stroke-dasharray:none;marker-end:url(#marker5123)" />
  <g
     id="g4339"
     transform="translate(0,-89.6)">
    <g
       transform="matrix(0.6063,0,0,0.6063,2.4252,233.4255)"
       id="clust4"
       class="cluster">
      <title
         id="title31">cluster_Sensors</title>
      <polygon
         points="386.2428,-213.9872 386.2428,-139.9872 254.2428,-139.9872 254.2428,-139.9872 254.2428,-213.9872 "
         id="polygon33"
         style="fill:none;stroke:#000000" />
      <text
         x="320.5636"
         y="-198.7872"
         font-size="14.00"
         id="text35"
         style="font-size:14px;font-family:Times, serif;text-anchor:middle;fill:#000000">Sensors data stream</text>
    </g>
    <g
       transform="matrix(0.6063,0,0,0.6063,2.4252,233.4255)"
       id="node4"
       class="node">
      <title
         id="title94">Data_Sensors</title>
      <ellipse
         cx="320.4809"
         cy="-165.6281"
         rx="27"
         ry="18"
         id="ellipse96"
         style="fill:none;stroke:#000000" />
      <text
         x="320.4809"
         y="-161.4281"
         font-size="14.00"
         id="text98"
         style="font-size:14px;font-family:Times, serif;text-anchor:middle;fill:#000000">Data</text>
    </g>
  </g>
  <polygon
     points="400.7869,-380.7562 400.7869,-306.7562 260.7869,-306.7562 260.7869,-306.7562 260.7869,-380.7562 "
     id="polygon40"
     style="fill:none;stroke:#000000"
     transform="matrix(0.6063,0,0,0.6063,-111.1748,247.8255)" />
  <text
     x="89.504745"
     y="26.188768"
     font-size="14.00"
     id="text42"
     style="font-size:8.48820019px;font-family:Times, serif;text-anchor:middle;fill:#000000">Simulated data stream</text>
  <g
     class="node"
     id="node5"
     transform="matrix(0.6063,0,0,0.6063,-111.1748,247.8255)">
    <title
       id="title101">Data</title>
    <ellipse
       style="fill:none;stroke:#000000"
       id="ellipse103"
       ry="18"
       rx="27"
       cy="-332.39709"
       cx="331.02499" />
    <text
       style="font-size:14px;font-family:Times, serif;text-anchor:middle;fill:#000000"
       id="text105"
       font-size="14.00"
       y="-328.19711"
       x="331.02499">Data</text>
  </g>
  <g
     id="g5107">
    <g
       transform="matrix(0.6063,0,0,0.6063,2.4252,289.4255)"
       id="clust6"
       class="cluster">
      <title
         id="title45">cluster_Custom</title>
      <polygon
         points="272.162,-296.871 467.162,-296.871 467.162,-222.871 272.162,-222.871 272.162,-222.871 "
         id="polygon47"
         style="fill:none;stroke:#000000" />
      <text
         x="370.37589"
         y="-281.67099"
         font-size="14.00"
         id="text49"
         style="font-size:14px;font-family:Times, serif;text-anchor:middle;fill:#000000">Customized Product (Ponteligo)</text>
    </g>
    <g
       transform="matrix(0.6063,0,0,0.6063,2.4252,289.4255)"
       id="node6"
       class="node">
      <title
         id="title108">Web_Custom</title>
      <ellipse
         cx="369.40009"
         cy="-248.5119"
         rx="69.651398"
         ry="18"
         id="ellipse110"
         style="fill:none;stroke:#000000" />
      <text
         x="369.40009"
         y="-244.3119"
         font-size="14.00"
         id="text112"
         style="font-size:14px;font-family:Times, serif;text-anchor:middle;fill:#000000">Web Application</text>
    </g>
  </g>
  <path
     style="fill:none;stroke:#000000;stroke-width:0.60640001;stroke-miterlimit:4;stroke-dasharray:2.42560005, 2.42560004999999990;stroke-dashoffset:0;marker-end:url(#Arrow2Lend)"
     inkscape:connector-curvature="0"
     id="path4385"
     d="m 116.09489,43.870232 c 17.58742,13.747807 56.61523,44.255327 81.80075,63.942488" />
  <path
     style="fill:none;stroke:#000000;stroke-width:0.60640001;stroke-miterlimit:4;stroke-dasharray:none;marker-end:url(#marker4949)"
     inkscape:connector-curvature="0"
     id="path4941"
     d="m 221.67323,36.892321 c 0.24928,15.117943 0.80253,48.665822 1.15954,70.315009" />
</svg>
